<svg version="1.2" xmlns="http://www.w3.org/2000/svg" viewBox="0 0 1000 1000" width="1000" height="1000">
	<title>circled-up-svg</title>
	<style>
		.s0 { fill: #ffffff } 
	</style>
	<path id="Layer" fill-rule="evenodd" class="s0" d="m62.5 500c0-241.5 196-437.5 437.5-437.5 241.5 0 437.5 196 437.5 437.5 0 241.5-196 437.5-437.5 437.5-241.5 0-437.5-196-437.5-437.5zm460.1-40.2l202 202c9.6 9.6 25.6 9.6 35.2 0l58.8-58.8c9.6-9.6 9.6-25.6 0-35.2l-296-295.7c-9.7-10-25.3-10-34.9 0l-296 295.7c-9.6 9.6-9.6 25.6 0 35.2l58.8 58.8c9.6 9.6 25.6 9.6 35.2 0l202-202c9.6-9.6 25.3-9.6 34.9 0z"/>
</svg>